<?xml version="1.0" encoding="UTF-8"?>
<svg xmlns="http://www.w3.org/2000/svg" xmlns:xlink="http://www.w3.org/1999/xlink" width="0" height="0">
<defs>
<symbol viewBox="0 0 24 24" fill="none" stroke="currentColor" stroke-width="2" stroke-linecap="round" stroke-linejoin="round" id="Zap">
  <path d="M4 14a1 1 0 0 1-.78-1.63l9.9-10.2a.5.5 0 0 1 .86.46l-1.92 6.02A1 1 0 0 0 13 10h7a1 1 0 0 1 .78 1.63l-9.9 10.2a.5.5 0 0 1-.86-.46l1.92-6.02A1 1 0 0 0 11 14z" ></path>
</symbol>
<symbol viewBox="0 0 24 24" fill="none" stroke="currentColor" stroke-width="2" stroke-linecap="round" stroke-linejoin="round" id="X">
  <path d="M18 6 6 18" ></path>
  <path d="m6 6 12 12" ></path>
</symbol>
<symbol viewBox="0 0 24 24" fill="none" stroke="currentColor" stroke-width="2" stroke-linecap="round" stroke-linejoin="round" id="Users">
  <path d="M16 21v-2a4 4 0 0 0-4-4H6a4 4 0 0 0-4 4v2" ></path>
  <circle cx="9" cy="7" r="4" ></circle>
  <path d="M22 21v-2a4 4 0 0 0-3-3.87" ></path>
  <path d="M16 3.13a4 4 0 0 1 0 7.75" ></path>
</symbol>
<symbol viewBox="0 0 24 24" fill="none" stroke="currentColor" stroke-width="2" stroke-linecap="round" stroke-linejoin="round" id="Sun">
  <circle cx="12" cy="12" r="4" ></circle>
  <path d="M12 2v2" ></path>
  <path d="M12 20v2" ></path>
  <path d="m4.93 4.93 1.41 1.41" ></path>
  <path d="m17.66 17.66 1.41 1.41" ></path>
  <path d="M2 12h2" ></path>
  <path d="M20 12h2" ></path>
  <path d="m6.34 17.66-1.41 1.41" ></path>
  <path d="m19.07 4.93-1.41 1.41" ></path>
</symbol>
<symbol viewBox="0 0 24 24" fill="none" stroke="currentColor" stroke-width="2" stroke-linecap="round" stroke-linejoin="round" id="ShieldAlert">
  <path d="M20 13c0 5-3.5 7.5-7.66 8.95a1 1 0 0 1-.67-.01C7.5 20.5 4 18 4 13V6a1 1 0 0 1 1-1c2 0 4.5-1.2 6.24-2.72a1.17 1.17 0 0 1 1.52 0C14.51 3.81 17 5 19 5a1 1 0 0 1 1 1z" ></path>
  <path d="M12 8v4" ></path>
  <path d="M12 16h.01" ></path>
</symbol>
<symbol viewBox="0 0 24 24" fill="none" stroke="currentColor" stroke-width="2" stroke-linecap="round" stroke-linejoin="round" id="Settings">
  <path d="M12.22 2h-.44a2 2 0 0 0-2 2v.18a2 2 0 0 1-1 1.73l-.43.25a2 2 0 0 1-2 0l-.15-.08a2 2 0 0 0-2.73.73l-.22.38a2 2 0 0 0 .73 2.73l.15.1a2 2 0 0 1 1 1.72v.51a2 2 0 0 1-1 1.74l-.15.09a2 2 0 0 0-.73 2.73l.22.38a2 2 0 0 0 2.73.73l.15-.08a2 2 0 0 1 2 0l.43.25a2 2 0 0 1 1 1.73V20a2 2 0 0 0 2 2h.44a2 2 0 0 0 2-2v-.18a2 2 0 0 1 1-1.73l.43-.25a2 2 0 0 1 2 0l.15.08a2 2 0 0 0 2.73-.73l.22-.39a2 2 0 0 0-.73-2.73l-.15-.08a2 2 0 0 1-1-1.74v-.5a2 2 0 0 1 1-1.74l.15-.09a2 2 0 0 0 .73-2.73l-.22-.38a2 2 0 0 0-2.73-.73l-.15.08a2 2 0 0 1-2 0l-.43-.25a2 2 0 0 1-1-1.73V4a2 2 0 0 0-2-2z" ></path>
  <circle cx="12" cy="12" r="3" ></circle>
</symbol>
<symbol viewBox="0 0 24 24" fill="none" stroke="currentColor" stroke-width="2" stroke-linecap="round" stroke-linejoin="round" id="Settings2">
  <path d="M20 7h-9" ></path>
  <path d="M14 17H5" ></path>
  <circle cx="17" cy="17" r="3" ></circle>
  <circle cx="7" cy="7" r="3" ></circle>
</symbol>
<symbol viewBox="0 0 24 24" fill="none" stroke="currentColor" stroke-width="2" stroke-linecap="round" stroke-linejoin="round" id="RefreshCw">
  <path d="M3 12a9 9 0 0 1 9-9 9.75 9.75 0 0 1 6.74 2.74L21 8" ></path>
  <path d="M21 3v5h-5" ></path>
  <path d="M21 12a9 9 0 0 1-9 9 9.75 9.75 0 0 1-6.74-2.74L3 16" ></path>
  <path d="M8 16H3v5" ></path>
</symbol>
<symbol viewBox="0 0 24 24" fill="none" stroke="currentColor" stroke-width="2" stroke-linecap="round" stroke-linejoin="round" id="Plus">
  <path d="M5 12h14" ></path>
  <path d="M12 5v14" ></path>
</symbol>
<symbol viewBox="0 0 24 24" fill="none" stroke="currentColor" stroke-width="2" stroke-linecap="round" stroke-linejoin="round" id="Palette">
  <circle cx="13.5" cy="6.5" r=".5" fill="currentColor" ></circle>
  <circle cx="17.5" cy="10.5" r=".5" fill="currentColor" ></circle>
  <circle cx="8.5" cy="7.5" r=".5" fill="currentColor" ></circle>
  <circle cx="6.5" cy="12.5" r=".5" fill="currentColor" ></circle>
  <path d="M12 2C6.5 2 2 6.5 2 12s4.5 10 10 10c.926 0 1.648-.746 1.648-1.688 0-.437-.18-.835-.437-1.125-.29-.289-.438-.652-.438-1.125a1.64 1.64 0 0 1 1.668-1.668h1.996c3.051 0 5.555-2.503 5.555-5.554C21.965 6.012 17.461 2 12 2z" ></path>
</symbol>
<symbol viewBox="0 0 24 24" fill="none" stroke="currentColor" stroke-width="2" stroke-linecap="round" stroke-linejoin="round" id="Moon">
  <path d="M12 3a6 6 0 0 0 9 9 9 9 0 1 1-9-9Z" ></path>
</symbol>
<symbol viewBox="0 0 24 24" fill="none" stroke="currentColor" stroke-width="2" stroke-linecap="round" stroke-linejoin="round" id="Minus">
  <path d="M5 12h14" ></path>
</symbol>
<symbol viewBox="0 0 24 24" fill="none" stroke="currentColor" stroke-width="2" stroke-linecap="round" stroke-linejoin="round" id="LoaderCircle">
  <path d="M21 12a9 9 0 1 1-6.219-8.56" ></path>
</symbol>
<symbol viewBox="0 0 24 24" fill="none" stroke="currentColor" stroke-width="2" stroke-linecap="round" stroke-linejoin="round" id="Laptop">
  <path d="M20 16V7a2 2 0 0 0-2-2H6a2 2 0 0 0-2 2v9m16 0H4m16 0 1.28 2.55a1 1 0 0 1-.9 1.45H3.62a1 1 0 0 1-.9-1.45L4 16" ></path>
</symbol>
<symbol viewBox="0 0 24 24" fill="none" stroke="currentColor" stroke-width="2" stroke-linecap="round" stroke-linejoin="round" id="Key">
  <path d="m15.5 7.5 2.3 2.3a1 1 0 0 0 1.4 0l2.1-2.1a1 1 0 0 0 0-1.4L19 4" ></path>
  <path d="m21 2-9.6 9.6" ></path>
  <circle cx="7.5" cy="15.5" r="5.5" ></circle>
</symbol>
<symbol viewBox="0 0 24 24" fill="none" stroke="currentColor" stroke-width="2" stroke-linecap="round" stroke-linejoin="round" id="Ellipsis">
  <circle cx="12" cy="12" r="1" ></circle>
  <circle cx="19" cy="12" r="1" ></circle>
  <circle cx="5" cy="12" r="1" ></circle>
</symbol>
<symbol viewBox="0 0 24 24" fill="none" stroke="currentColor" stroke-width="2" stroke-linecap="round" stroke-linejoin="round" id="EllipsisVertical">
  <circle cx="12" cy="12" r="1" ></circle>
  <circle cx="12" cy="5" r="1" ></circle>
  <circle cx="12" cy="19" r="1" ></circle>
</symbol>
<symbol viewBox="0 0 24 24" fill="none" stroke="currentColor" stroke-width="2" stroke-linecap="round" stroke-linejoin="round" id="Database">
  <ellipse cx="12" cy="5" rx="9" ry="3" ></ellipse>
  <path d="M3 5V19A9 3 0 0 0 21 19V5" ></path>
  <path d="M3 12A9 3 0 0 0 21 12" ></path>
</symbol>
<symbol viewBox="0 0 24 24" fill="none" stroke="currentColor" stroke-width="2" stroke-linecap="round" stroke-linejoin="round" id="ChevronRight">
  <path d="m9 18 6-6-6-6" ></path>
</symbol>
<symbol viewBox="0 0 24 24" fill="none" stroke="currentColor" stroke-width="2" stroke-linecap="round" stroke-linejoin="round" id="Check">
  <path d="M20 6 9 17l-5-5" ></path>
</symbol>
<symbol viewBox="0 0 24 24" fill="none" stroke="currentColor" stroke-width="2" stroke-linecap="round" stroke-linejoin="round" id="Bookmark">
  <path d="m19 21-7-4-7 4V5a2 2 0 0 1 2-2h10a2 2 0 0 1 2 2v16z" ></path>
</symbol>
</defs>
</svg>